<?xml version="1.0" standalone="no"?>
<!DOCTYPE svg PUBLIC "-//W3C//DTD SVG 20010904//EN"
 "http://www.w3.org/TR/2001/REC-SVG-20010904/DTD/svg10.dtd">
<svg version="1.0" xmlns="http://www.w3.org/2000/svg"
 width="256.000000pt" height="256.000000pt" viewBox="0 0 256.000000 256.000000"
 preserveAspectRatio="xMidYMid meet">
<metadata>
Created by potrace 1.15, written by Peter Selinger 2001-2017
</metadata>
<g transform="translate(0.000000,256.000000) scale(0.100000,-0.100000)"
fill="#000000" stroke="none">
<path d="M79 2481 l-29 -29 0 -1172 0 -1172 29 -29 29 -29 1172 0 1172 0 29
29 29 29 0 1172 0 1172 -29 29 -29 29 -1172 0 -1172 0 -29 -29z m1141 -611 l0
-530 -530 0 -530 0 0 530 0 530 530 0 530 0 0 -530z m1180 0 l0 -530 -530 0
-530 0 0 530 0 530 530 0 530 0 0 -530z m-1180 -1180 l0 -530 -530 0 -530 0 0
530 0 530 530 0 530 0 0 -530z m1180 0 l0 -530 -530 0 -530 0 0 530 0 530 530
0 530 0 0 -530z"/>
<path d="M700 2203 c-33 -12 -40 -36 -40 -145 l0 -108 -108 0 c-120 0 -144 -9
-144 -53 0 -51 14 -57 138 -57 l114 0 0 -110 c0 -97 2 -112 20 -130 24 -24 38
-25 68 -4 21 14 22 23 22 130 l0 114 115 0 c113 0 115 0 132 26 15 24 15 29 2
53 -14 25 -17 26 -132 29 l-117 3 0 114 c0 106 -1 115 -22 129 -24 17 -25 17
-48 9z"/>
<path d="M1593 1924 c-15 -24 -15 -29 -2 -53 l15 -26 287 -3 286 -2 16 23 c18
28 7 70 -20 81 -9 3 -140 6 -291 6 l-274 0 -17 -26z"/>
<path d="M496 884 c-30 -30 -18 -56 61 -136 l77 -77 -77 -80 c-81 -82 -93
-113 -61 -145 32 -32 63 -20 145 61 l80 77 77 -77 c43 -42 86 -77 95 -77 36 0
57 20 57 53 0 27 -12 45 -75 107 l-75 74 75 77 c59 60 75 83 75 106 0 37 -16
53 -53 53 -23 0 -46 -16 -106 -74 l-76 -75 -76 75 c-80 78 -111 90 -143 58z"/>
<path d="M1614 870 c-26 -10 -38 -53 -24 -80 6 -10 25 -22 43 -25 53 -10 545
-1 555 10 24 25 23 55 -2 80 l-25 25 -263 -1 c-145 0 -273 -4 -284 -9z"/>
<path d="M1600 550 c-24 -24 -25 -38 -4 -68 15 -22 17 -22 299 -22 l285 0 15
24 c18 27 7 69 -20 80 -9 3 -138 6 -286 6 -256 0 -270 -1 -289 -20z"/>
</g>
</svg>
